{
    "asset" : {
        "generator" : "Khronos glTF Blender I/O v0.9.36",
        "version" : "2.0"
    },
    "scene" : 0,
    "scenes" : [
        {
            "nodes" : [
                0,
                1,
                2,
                3,
                4,
                5,
                6,
                7
            ],
            "name" : "Scene.001"
        }
    ],
    "nodes" : [
        {
            "name" : "Box0",
            "mesh" : 0
        },
        {
            "translation" : [
                0,
                1,
                0
            ],
            "name" : "Box1",
            "mesh" : 1
        },
        {
            "translation" : [
                -1,
                0,
                0
            ],
            "name" : "Box2",
            "mesh" : 2
        },
        {
            "translation" : [
                -1,
                0,
                -1
            ],
            "name" : "Box3",
            "mesh" : 3
        },
        {
            "translation" : [
                0,
                0,
                -1
            ],
            "name" : "Box4",
            "mesh" : 4
        },
        {
            "translation" : [
                0,
                1,
                -1
            ],
            "name" : "Box5",
            "mesh" : 5
        },
        {
            "translation" : [
                -1,
                1,
                0
            ],
            "name" : "Box6",
            "mesh" : 6
        },
        {
            "translation" : [
                -1,
                1,
                -1
            ],
            "name" : "Box7",
            "mesh" : 7
        }
    ],
    "animations" : [
        {
            "channels" : [
                {
                    "sampler" : 0,
                    "target" : {
                        "path" : "translation",
                        "node" : 0
                    }
                }
            ],
            "name" : "Box0Action@Box0.002@Box0.001",
            "samplers" : [
                {
                    "interpolation" : "CUBICSPLINE",
                    "output" : 26,
                    "input" : 25
                }
            ]
        }
    ],
    "materials" : [
        {
            "name" : "materials[0].001",
            "emissiveFactor" : [
                0.4000000059604645,
                0.9882352948188782,
                0.9450980424880981
            ],
            "pbrMetallicRoughness" : {
                "baseColorFactor" : [
                    0.25882354378700256,
                    0.3960784375667572,
                    0.46666666865348816,
                    1
                ],
                "roughnessFactor" : 0.5,
                "metallicFactor" : 0.5
            }
        }
    ],
    "meshes" : [
        {
            "name" : "meshes[0].001",
            "primitives" : [
                {
                    "indices" : 3,
                    "attributes" : {
                        "TEXCOORD_0" : 0,
                        "POSITION" : 2,
                        "NORMAL" : 1
                    },
                    "material" : 0
                }
            ]
        },
        {
            "name" : "meshes[1].001",
            "primitives" : [
                {
                    "indices" : 3,
                    "attributes" : {
                        "TEXCOORD_0" : 4,
                        "POSITION" : 6,
                        "NORMAL" : 5
                    },
                    "material" : 0
                }
            ]
        },
        {
            "name" : "meshes[2].001",
            "primitives" : [
                {
                    "indices" : 3,
                    "attributes" : {
                        "TEXCOORD_0" : 7,
                        "POSITION" : 9,
                        "NORMAL" : 8
                    },
                    "material" : 0
                }
            ]
        },
        {
            "name" : "meshes[3].001",
            "primitives" : [
                {
                    "indices" : 3,
                    "attributes" : {
                        "TEXCOORD_0" : 10,
                        "POSITION" : 12,
                        "NORMAL" : 11
                    },
                    "material" : 0
                }
            ]
        },
        {
            "name" : "meshes[4].001",
            "primitives" : [
                {
                    "indices" : 3,
                    "attributes" : {
                        "TEXCOORD_0" : 13,
                        "POSITION" : 15,
                        "NORMAL" : 14
                    },
                    "material" : 0
                }
            ]
        },
        {
            "name" : "meshes[5].001",
            "primitives" : [
                {
                    "indices" : 3,
                    "attributes" : {
                        "TEXCOORD_0" : 16,
                        "POSITION" : 18,
                        "NORMAL" : 17
                    },
                    "material" : 0
                }
            ]
        },
        {
            "name" : "meshes[6].001",
            "primitives" : [
                {
                    "indices" : 3,
                    "attributes" : {
                        "TEXCOORD_0" : 19,
                        "POSITION" : 21,
                        "NORMAL" : 20
                    },
                    "material" : 0
                }
            ]
        },
        {
            "name" : "meshes[7].001",
            "primitives" : [
                {
                    "indices" : 3,
                    "attributes" : {
                        "TEXCOORD_0" : 22,
                        "POSITION" : 24,
                        "NORMAL" : 23
                    },
                    "material" : 0
                }
            ]
        }
    ],
    "accessors" : [
        {
            "componentType" : 5126,
            "bufferView" : 0,
            "count" : 24,
            "type" : "VEC2"
        },
        {
            "componentType" : 5126,
            "bufferView" : 1,
            "count" : 24,
            "type" : "VEC3"
        },
        {
            "bufferView" : 2,
            "max" : [
                0.5,
                0.5,
                0.5
            ],
            "componentType" : 5126,
            "count" : 24,
            "type" : "VEC3",
            "min" : [
                -0.5,
                -0.5,
                -0.5
            ]
        },
        {
            "componentType" : 5123,
            "bufferView" : 3,
            "count" : 36,
            "type" : "SCALAR"
        },
        {
            "componentType" : 5126,
            "bufferView" : 4,
            "count" : 24,
            "type" : "VEC2"
        },
        {
            "componentType" : 5126,
            "bufferView" : 5,
            "count" : 24,
            "type" : "VEC3"
        },
        {
            "bufferView" : 6,
            "max" : [
                0.5,
                0.5,
                0.5
            ],
            "componentType" : 5126,
            "count" : 24,
            "type" : "VEC3",
            "min" : [
                -0.5,
                -0.5,
                -0.5
            ]
        },
        {
            "componentType" : 5126,
            "bufferView" : 7,
            "count" : 24,
            "type" : "VEC2"
        },
        {
            "componentType" : 5126,
            "bufferView" : 8,
            "count" : 24,
            "type" : "VEC3"
        },
        {
            "bufferView" : 9,
            "max" : [
                0.5,
                0.5,
                0.5
            ],
            "componentType" : 5126,
            "count" : 24,
            "type" : "VEC3",
            "min" : [
                -0.5,
                -0.5,
                -0.5
            ]
        },
        {
            "componentType" : 5126,
            "bufferView" : 10,
            "count" : 24,
            "type" : "VEC2"
        },
        {
            "componentType" : 5126,
            "bufferView" : 11,
            "count" : 24,
            "type" : "VEC3"
        },
        {
            "bufferView" : 12,
            "max" : [
                0.5,
                0.5,
                0.5
            ],
            "componentType" : 5126,
            "count" : 24,
            "type" : "VEC3",
            "min" : [
                -0.5,
                -0.5,
                -0.5
            ]
        },
        {
            "componentType" : 5126,
            "bufferView" : 13,
            "count" : 24,
            "type" : "VEC2"
        },
        {
            "componentType" : 5126,
            "bufferView" : 14,
            "count" : 24,
            "type" : "VEC3"
        },
        {
            "bufferView" : 15,
            "max" : [
                0.5,
                0.5,
                0.5
            ],
            "componentType" : 5126,
            "count" : 24,
            "type" : "VEC3",
            "min" : [
                -0.5,
                -0.5,
                -0.5
            ]
        },
        {
            "componentType" : 5126,
            "bufferView" : 16,
            "count" : 24,
            "type" : "VEC2"
        },
        {
            "componentType" : 5126,
            "bufferView" : 17,
            "count" : 24,
            "type" : "VEC3"
        },
        {
            "bufferView" : 18,
            "max" : [
                0.5,
                0.5,
                0.5
            ],
            "componentType" : 5126,
            "count" : 24,
            "type" : "VEC3",
            "min" : [
                -0.5,
                -0.5,
                -0.5
            ]
        },
        {
            "componentType" : 5126,
            "bufferView" : 19,
            "count" : 24,
            "type" : "VEC2"
        },
        {
            "componentType" : 5126,
            "bufferView" : 20,
            "count" : 24,
            "type" : "VEC3"
        },
        {
            "bufferView" : 21,
            "max" : [
                0.5,
                0.5,
                0.5
            ],
            "componentType" : 5126,
            "count" : 24,
            "type" : "VEC3",
            "min" : [
                -0.5,
                -0.5,
                -0.5
            ]
        },
        {
            "componentType" : 5126,
            "bufferView" : 22,
            "count" : 24,
            "type" : "VEC2"
        },
        {
            "componentType" : 5126,
            "bufferView" : 23,
            "count" : 24,
            "type" : "VEC3"
        },
        {
            "bufferView" : 24,
            "max" : [
                0.5,
                0.5,
                0.5
            ],
            "componentType" : 5126,
            "count" : 24,
            "type" : "VEC3",
            "min" : [
                -0.5,
                -0.5,
                -0.5
            ]
        },
        {
            "bufferView" : 25,
            "max" : [
                4.166666666666667
            ],
            "componentType" : 5126,
            "count" : 2,
            "type" : "SCALAR",
            "min" : [
                0.041666666666666664
            ]
        },
        {
            "componentType" : 5126,
            "bufferView" : 26,
            "count" : 6,
            "type" : "VEC3"
        }
    ],
    "bufferViews" : [
        {
            "buffer" : 0,
            "byteOffset" : 0,
            "byteLength" : 192
        },
        {
            "buffer" : 0,
            "byteOffset" : 192,
            "byteLength" : 288
        },
        {
            "buffer" : 0,
            "byteOffset" : 480,
            "byteLength" : 288
        },
        {
            "buffer" : 0,
            "byteOffset" : 768,
            "byteLength" : 72
        },
        {
            "buffer" : 0,
            "byteOffset" : 840,
            "byteLength" : 192
        },
        {
            "buffer" : 0,
            "byteOffset" : 1032,
            "byteLength" : 288
        },
        {
            "buffer" : 0,
            "byteOffset" : 1320,
            "byteLength" : 288
        },
        {
            "buffer" : 0,
            "byteOffset" : 1608,
            "byteLength" : 192
        },
        {
            "buffer" : 0,
            "byteOffset" : 1800,
            "byteLength" : 288
        },
        {
            "buffer" : 0,
            "byteOffset" : 2088,
            "byteLength" : 288
        },
        {
            "buffer" : 0,
            "byteOffset" : 2376,
            "byteLength" : 192
        },
        {
            "buffer" : 0,
            "byteOffset" : 2568,
            "byteLength" : 288
        },
        {
            "buffer" : 0,
            "byteOffset" : 2856,
            "byteLength" : 288
        },
        {
            "buffer" : 0,
            "byteOffset" : 3144,
            "byteLength" : 192
        },
        {
            "buffer" : 0,
            "byteOffset" : 3336,
            "byteLength" : 288
        },
        {
            "buffer" : 0,
            "byteOffset" : 3624,
            "byteLength" : 288
        },
        {
            "buffer" : 0,
            "byteOffset" : 3912,
            "byteLength" : 192
        },
        {
            "buffer" : 0,
            "byteOffset" : 4104,
            "byteLength" : 288
        },
        {
            "buffer" : 0,
            "byteOffset" : 4392,
            "byteLength" : 288
        },
        {
            "buffer" : 0,
            "byteOffset" : 4680,
            "byteLength" : 192
        },
        {
            "buffer" : 0,
            "byteOffset" : 4872,
            "byteLength" : 288
        },
        {
            "buffer" : 0,
            "byteOffset" : 5160,
            "byteLength" : 288
        },
        {
            "buffer" : 0,
            "byteOffset" : 5448,
            "byteLength" : 192
        },
        {
            "buffer" : 0,
            "byteOffset" : 5640,
            "byteLength" : 288
        },
        {
            "buffer" : 0,
            "byteOffset" : 5928,
            "byteLength" : 288
        },
        {
            "buffer" : 0,
            "byteOffset" : 6216,
            "byteLength" : 8
        },
        {
            "buffer" : 0,
            "byteOffset" : 6224,
            "byteLength" : 72
        }
    ],
    "buffers" : [
        {
            "uri" : "data:application/octet-stream;base64,",
            "byteLength" : 6296
        }
    ]
}
