{
    "asset" : {
        "generator" : "Khronos glTF Blender I/O v0.9.36",
        "version" : "2.0"
    },
    "scene" : 0,
    "scenes" : [
        {
            "name" : "Scene",
            "nodes" : [
                0,
                1,
                2,
                3,
                4,
                5,
                6,
                7
            ]
        }
    ],
    "nodes" : [
        {
            "name" : "Box7.002",
            "mesh" : 0,
            "translation" : [
                -1,
                1,
                -1
            ]
        },
        {
            "name" : "Box6.002",
            "mesh" : 1,
            "translation" : [
                -1,
                1,
                0
            ]
        },
        {
            "name" : "Box5.002",
            "mesh" : 2,
            "translation" : [
                0,
                1,
                -1
            ]
        },
        {
            "name" : "Box4.002",
            "mesh" : 3,
            "translation" : [
                0,
                0,
                -1
            ]
        },
        {
            "name" : "Box3.002",
            "mesh" : 4,
            "translation" : [
                -1,
                0,
                -1
            ]
        },
        {
            "name" : "Box2.002",
            "mesh" : 5,
            "translation" : [
                -1,
                0,
                0
            ]
        },
        {
            "name" : "Box1.002",
            "mesh" : 6,
            "translation" : [
                0,
                1,
                0
            ]
        },
        {
            "name" : "Box0.002",
            "mesh" : 7
        }
    ],
    "animations" : [
        {
            "name" : "Box0Action@Box0.002",
            "samplers" : [
                {
                    "output" : 26,
                    "input" : 25,
                    "interpolation" : "CUBICSPLINE"
                }
            ],
            "channels" : [
                {
                    "target" : {
                        "node" : 7,
                        "path" : "translation"
                    },
                    "sampler" : 0
                }
            ]
        }
    ],
    "materials" : [
        {
            "name" : "materials[0].002",
            "pbrMetallicRoughness" : {
                "baseColorFactor" : [
                    0.25882354378700256,
                    0.3960784375667572,
                    0.46666666865348816,
                    1
                ],
                "roughnessFactor" : 0.5,
                "metallicFactor" : 0.5
            },
            "emissiveFactor" : [
                0.4000000059604645,
                0.9882352948188782,
                0.9450980424880981
            ]
        }
    ],
    "meshes" : [
        {
            "name" : "meshes[7].002",
            "primitives" : [
                {
                    "indices" : 3,
                    "attributes" : {
                        "POSITION" : 0,
                        "TEXCOORD_0" : 1,
                        "NORMAL" : 2
                    },
                    "material" : 0
                }
            ]
        },
        {
            "name" : "meshes[6].002",
            "primitives" : [
                {
                    "indices" : 3,
                    "attributes" : {
                        "POSITION" : 4,
                        "TEXCOORD_0" : 5,
                        "NORMAL" : 6
                    },
                    "material" : 0
                }
            ]
        },
        {
            "name" : "meshes[5].002",
            "primitives" : [
                {
                    "indices" : 3,
                    "attributes" : {
                        "POSITION" : 7,
                        "TEXCOORD_0" : 8,
                        "NORMAL" : 9
                    },
                    "material" : 0
                }
            ]
        },
        {
            "name" : "meshes[4].002",
            "primitives" : [
                {
                    "indices" : 3,
                    "attributes" : {
                        "POSITION" : 10,
                        "TEXCOORD_0" : 11,
                        "NORMAL" : 12
                    },
                    "material" : 0
                }
            ]
        },
        {
            "name" : "meshes[3].002",
            "primitives" : [
                {
                    "indices" : 3,
                    "attributes" : {
                        "POSITION" : 13,
                        "TEXCOORD_0" : 14,
                        "NORMAL" : 15
                    },
                    "material" : 0
                }
            ]
        },
        {
            "name" : "meshes[2].002",
            "primitives" : [
                {
                    "indices" : 3,
                    "attributes" : {
                        "POSITION" : 16,
                        "TEXCOORD_0" : 17,
                        "NORMAL" : 18
                    },
                    "material" : 0
                }
            ]
        },
        {
            "name" : "meshes[1].002",
            "primitives" : [
                {
                    "indices" : 3,
                    "attributes" : {
                        "POSITION" : 19,
                        "TEXCOORD_0" : 20,
                        "NORMAL" : 21
                    },
                    "material" : 0
                }
            ]
        },
        {
            "name" : "meshes[0].002",
            "primitives" : [
                {
                    "indices" : 3,
                    "attributes" : {
                        "POSITION" : 22,
                        "TEXCOORD_0" : 23,
                        "NORMAL" : 24
                    },
                    "material" : 0
                }
            ]
        }
    ],
    "accessors" : [
        {
            "max" : [
                0.5,
                0.5,
                0.5
            ],
            "componentType" : 5126,
            "min" : [
                -0.5,
                -0.5,
                -0.5
            ],
            "count" : 24,
            "type" : "VEC3",
            "bufferView" : 0
        },
        {
            "type" : "VEC2",
            "componentType" : 5126,
            "count" : 24,
            "bufferView" : 1
        },
        {
            "type" : "VEC3",
            "componentType" : 5126,
            "count" : 24,
            "bufferView" : 2
        },
        {
            "type" : "SCALAR",
            "componentType" : 5123,
            "count" : 36,
            "bufferView" : 3
        },
        {
            "max" : [
                0.5,
                0.5,
                0.5
            ],
            "componentType" : 5126,
            "min" : [
                -0.5,
                -0.5,
                -0.5
            ],
            "count" : 24,
            "type" : "VEC3",
            "bufferView" : 4
        },
        {
            "type" : "VEC2",
            "componentType" : 5126,
            "count" : 24,
            "bufferView" : 5
        },
        {
            "type" : "VEC3",
            "componentType" : 5126,
            "count" : 24,
            "bufferView" : 6
        },
        {
            "max" : [
                0.5,
                0.5,
                0.5
            ],
            "componentType" : 5126,
            "min" : [
                -0.5,
                -0.5,
                -0.5
            ],
            "count" : 24,
            "type" : "VEC3",
            "bufferView" : 7
        },
        {
            "type" : "VEC2",
            "componentType" : 5126,
            "count" : 24,
            "bufferView" : 8
        },
        {
            "type" : "VEC3",
            "componentType" : 5126,
            "count" : 24,
            "bufferView" : 9
        },
        {
            "max" : [
                0.5,
                0.5,
                0.5
            ],
            "componentType" : 5126,
            "min" : [
                -0.5,
                -0.5,
                -0.5
            ],
            "count" : 24,
            "type" : "VEC3",
            "bufferView" : 10
        },
        {
            "type" : "VEC2",
            "componentType" : 5126,
            "count" : 24,
            "bufferView" : 11
        },
        {
            "type" : "VEC3",
            "componentType" : 5126,
            "count" : 24,
            "bufferView" : 12
        },
        {
            "max" : [
                0.5,
                0.5,
                0.5
            ],
            "componentType" : 5126,
            "min" : [
                -0.5,
                -0.5,
                -0.5
            ],
            "count" : 24,
            "type" : "VEC3",
            "bufferView" : 13
        },
        {
            "type" : "VEC2",
            "componentType" : 5126,
            "count" : 24,
            "bufferView" : 14
        },
        {
            "type" : "VEC3",
            "componentType" : 5126,
            "count" : 24,
            "bufferView" : 15
        },
        {
            "max" : [
                0.5,
                0.5,
                0.5
            ],
            "componentType" : 5126,
            "min" : [
                -0.5,
                -0.5,
                -0.5
            ],
            "count" : 24,
            "type" : "VEC3",
            "bufferView" : 16
        },
        {
            "type" : "VEC2",
            "componentType" : 5126,
            "count" : 24,
            "bufferView" : 17
        },
        {
            "type" : "VEC3",
            "componentType" : 5126,
            "count" : 24,
            "bufferView" : 18
        },
        {
            "max" : [
                0.5,
                0.5,
                0.5
            ],
            "componentType" : 5126,
            "min" : [
                -0.5,
                -0.5,
                -0.5
            ],
            "count" : 24,
            "type" : "VEC3",
            "bufferView" : 19
        },
        {
            "type" : "VEC2",
            "componentType" : 5126,
            "count" : 24,
            "bufferView" : 20
        },
        {
            "type" : "VEC3",
            "componentType" : 5126,
            "count" : 24,
            "bufferView" : 21
        },
        {
            "max" : [
                0.5,
                0.5,
                0.5
            ],
            "componentType" : 5126,
            "min" : [
                -0.5,
                -0.5,
                -0.5
            ],
            "count" : 24,
            "type" : "VEC3",
            "bufferView" : 22
        },
        {
            "type" : "VEC2",
            "componentType" : 5126,
            "count" : 24,
            "bufferView" : 23
        },
        {
            "type" : "VEC3",
            "componentType" : 5126,
            "count" : 24,
            "bufferView" : 24
        },
        {
            "max" : [
                4.166666666666667
            ],
            "componentType" : 5126,
            "min" : [
                0.041666666666666664
            ],
            "count" : 2,
            "type" : "SCALAR",
            "bufferView" : 25
        },
        {
            "type" : "VEC3",
            "componentType" : 5126,
            "count" : 6,
            "bufferView" : 26
        }
    ],
    "bufferViews" : [
        {
            "byteLength" : 288,
            "byteOffset" : 0,
            "buffer" : 0
        },
        {
            "byteLength" : 192,
            "byteOffset" : 288,
            "buffer" : 0
        },
        {
            "byteLength" : 288,
            "byteOffset" : 480,
            "buffer" : 0
        },
        {
            "byteLength" : 72,
            "byteOffset" : 768,
            "buffer" : 0
        },
        {
            "byteLength" : 288,
            "byteOffset" : 840,
            "buffer" : 0
        },
        {
            "byteLength" : 192,
            "byteOffset" : 1128,
            "buffer" : 0
        },
        {
            "byteLength" : 288,
            "byteOffset" : 1320,
            "buffer" : 0
        },
        {
            "byteLength" : 288,
            "byteOffset" : 1608,
            "buffer" : 0
        },
        {
            "byteLength" : 192,
            "byteOffset" : 1896,
            "buffer" : 0
        },
        {
            "byteLength" : 288,
            "byteOffset" : 2088,
            "buffer" : 0
        },
        {
            "byteLength" : 288,
            "byteOffset" : 2376,
            "buffer" : 0
        },
        {
            "byteLength" : 192,
            "byteOffset" : 2664,
            "buffer" : 0
        },
        {
            "byteLength" : 288,
            "byteOffset" : 2856,
            "buffer" : 0
        },
        {
            "byteLength" : 288,
            "byteOffset" : 3144,
            "buffer" : 0
        },
        {
            "byteLength" : 192,
            "byteOffset" : 3432,
            "buffer" : 0
        },
        {
            "byteLength" : 288,
            "byteOffset" : 3624,
            "buffer" : 0
        },
        {
            "byteLength" : 288,
            "byteOffset" : 3912,
            "buffer" : 0
        },
        {
            "byteLength" : 192,
            "byteOffset" : 4200,
            "buffer" : 0
        },
        {
            "byteLength" : 288,
            "byteOffset" : 4392,
            "buffer" : 0
        },
        {
            "byteLength" : 288,
            "byteOffset" : 4680,
            "buffer" : 0
        },
        {
            "byteLength" : 192,
            "byteOffset" : 4968,
            "buffer" : 0
        },
        {
            "byteLength" : 288,
            "byteOffset" : 5160,
            "buffer" : 0
        },
        {
            "byteLength" : 288,
            "byteOffset" : 5448,
            "buffer" : 0
        },
        {
            "byteLength" : 192,
            "byteOffset" : 5736,
            "buffer" : 0
        },
        {
            "byteLength" : 288,
            "byteOffset" : 5928,
            "buffer" : 0
        },
        {
            "byteLength" : 8,
            "byteOffset" : 6216,
            "buffer" : 0
        },
        {
            "byteLength" : 72,
            "byteOffset" : 6224,
            "buffer" : 0
        }
    ],
    "buffers" : [
        {
            "uri" : "data:application/octet-stream;base64,",
            "byteLength" : 6296
        }
    ]
}
